# xmcd
# Track frame offsets:
# 150
# 27367
# 57472
# 88347
# 111367
# 141620
# 167415
# 203017
# 232515
#
# Disc length: 3408 seconds
# Revision: 0
# Processed by: cddbd v1.4PL0 Copyright (c) Steve Scherf et al.
# Submitted via: VisiTrax 2.9.5.181 - For more info visit www.synapsa.com
#
DISCID=780d4e09
DTITLE=Clapton, Eric - Feelin' Alright - CD2
DYEAR=1993
DGENRE=
TTITLE0=Unchain My Heart
TTITLE1=Groaning The Blues
TTITLE2=Crossroads
TTITLE3=Ain't Nobody's Business
TTITLE4=Layla
TTITLE5=Stone Free
TTITLE6=Old Love
TTITLE7=Gimme Some Loving
TTITLE8=Can I Get A Witness
EXTD=As CD1
EXTT0=Joe Cocker on Vocals
EXTT1=
EXTT2=
EXTT3=
EXTT4=
EXTT5=Recorded at Cowdry Park Sussex \n18/09/1993
EXTT6=Recorded at Cowdry Park Sussex \n18/09/1993
EXTT7=Recorded at Cowdry Park Sussex \n18/09/1993
EXTT8=Recorded at Cowdry Park Sussex \n18/09/1993
PLAYORDER=
